<?xml version="1.0" encoding="utf-8"?>
<!-- Generator: Adobe Illustrator 16.0.0, SVG Export Plug-In . SVG Version: 6.00 Build 0)  -->
<!DOCTYPE svg PUBLIC "-//W3C//DTD SVG 1.1//EN" "http://www.w3.org/Graphics/SVG/1.1/DTD/svg11.dtd">
<svg version="1.1" id="图层_1" xmlns="http://www.w3.org/2000/svg" xmlns:xlink="http://www.w3.org/1999/xlink" x="0px" y="0px"
	 width="44px" height="44px" viewBox="0 0 44 44" enable-background="new 0 0 44 44" xml:space="preserve">
<path fill-rule="evenodd" clip-rule="evenodd" fill="#FFFFFF" d="M4.234,17.848c2.295,0,4.154,1.857,4.154,4.152
	c0,2.293-1.859,4.152-4.154,4.152c-2.294,0-4.154-1.859-4.154-4.152C0.081,19.705,1.94,17.848,4.234,17.848z"/>
<path fill-rule="evenodd" clip-rule="evenodd" fill="#FFFFFF" d="M22.041,15.474c3.605,0,6.529,2.922,6.529,6.526
	s-2.924,6.526-6.529,6.526c-3.606,0-6.529-2.922-6.529-6.526S18.434,15.474,22.041,15.474z"/>
<path fill-rule="evenodd" clip-rule="evenodd" fill="#FFFFFF" d="M39.847,17.848C42.141,17.848,44,19.705,44,22
	c0,2.293-1.859,4.152-4.153,4.152c-2.295,0-4.154-1.859-4.154-4.152C35.692,19.705,37.552,17.848,39.847,17.848z"/>
</svg>
