<?xml version="1.0" encoding="utf-8"?>
<!-- Generator: Adobe Illustrator 16.0.0, SVG Export Plug-In . SVG Version: 6.00 Build 0)  -->
<!DOCTYPE svg PUBLIC "-//W3C//DTD SVG 1.1//EN" "http://www.w3.org/Graphics/SVG/1.1/DTD/svg11.dtd">
<svg version="1.1" id="图层_1" xmlns="http://www.w3.org/2000/svg" xmlns:xlink="http://www.w3.org/1999/xlink" x="0px" y="0px"
	 width="44px" height="44px" viewBox="0 0 44 44" enable-background="new 0 0 44 44" xml:space="preserve">
<g>
	<path fill="#FFFFFF" d="M22.001,4.421c9.697,0,17.586,7.886,17.586,17.58c0,9.692-7.889,17.577-17.586,17.577
		S4.414,31.693,4.414,22.001C4.414,12.308,12.304,4.421,22.001,4.421 M22.001,2.421c-10.818,0-19.587,8.766-19.587,19.58
		c0,10.812,8.769,19.577,19.587,19.577s19.586-8.766,19.586-19.577C41.587,11.188,32.819,2.421,22.001,2.421L22.001,2.421z"/>
</g>
<path fill-rule="evenodd" clip-rule="evenodd" fill="#FFFFFF" d="M22.001,15.475c3.605,0,6.529,2.922,6.529,6.526
	s-2.924,6.526-6.529,6.526c-3.606,0-6.529-2.922-6.529-6.526S18.395,15.475,22.001,15.475z"/>
</svg>
