<?xml version="1.0" encoding="utf-8"?>
<!-- Generator: Adobe Illustrator 16.0.0, SVG Export Plug-In . SVG Version: 6.00 Build 0)  -->
<!DOCTYPE svg PUBLIC "-//W3C//DTD SVG 1.1//EN" "http://www.w3.org/Graphics/SVG/1.1/DTD/svg11.dtd">
<svg version="1.1" id="图层_1" xmlns="http://www.w3.org/2000/svg" xmlns:xlink="http://www.w3.org/1999/xlink" x="0px" y="0px"
	 width="200px" height="200px" viewBox="0 0 200 200" enable-background="new 0 0 200 200" xml:space="preserve">
<path fill="#FFFFFF" d="M166.293,1.167H33.704c-17.943,0-32.537,14.594-32.537,32.537v132.598c0,17.933,14.594,32.532,32.537,32.532
	h132.598c17.933,0,32.532-14.6,32.532-32.532V33.704C198.834,15.761,184.234,1.167,166.293,1.167z M42.438,9.415h115.12
	c-0.032,0.206-0.123,0.395-0.123,0.609V66.85c0,5.555-4.522,10.081-10.077,10.081H52.643c-5.556,0-10.082-4.521-10.082-10.081
	V10.024C42.561,9.81,42.471,9.621,42.438,9.415z M190.581,166.302c0,13.391-10.896,24.283-24.288,24.283H33.704
	c-13.392,0-24.289-10.896-24.289-24.283V33.704c0-13.392,10.896-24.289,24.289-24.289h0.733c-0.033,0.206-0.124,0.396-0.124,0.609
	v56.829c0,10.102,8.224,18.33,18.333,18.33h94.703c10.11,0,18.334-8.224,18.334-18.333V10.024c0-0.214-0.091-0.403-0.123-0.609
	h0.732c13.392,0,24.288,10.9,24.288,24.289V166.302z"/>
<path fill="#FFFFFF" d="M128.407,61.504c2.285,0,4.125-1.845,4.125-4.123V28.967c0-2.273-1.84-4.122-4.125-4.122
	c-2.278,0-4.127,1.849-4.127,4.122v28.415C124.28,59.66,126.133,61.504,128.407,61.504z"/>
</svg>
